<svg xmlns="http://www.w3.org/2000/svg" viewBox="0 0 1673.45 513.67"><g id="Layer_2" data-name="Layer 2"><path d="M642.19,328.07c14.79,24.35,46,17.51,54.62-.23-3.87-9.79-14.11-12.52-16.38-12.06-4.78,3.41-12.75,6.6-21.86,0C646.51,316.91,642.19,326.93,642.19,328.07Z" transform="translate(-112.15 -244.31)"/><circle cx="557.24" cy="54.5" r="15.82"/></g><g id="Layer_1" data-name="Layer 1"><path d="M112.15,244.31H183.9L340.18,596.78,497.61,244.31H570L339.3,758Z" transform="translate(-112.15 -244.31)"/><path d="M827.38,325.17h68v93.75h67.19V481H895.35V741.19h-68V481H773.87V418.14h53.51Z" transform="translate(-112.15 -244.31)"/><path d="M1293.79,418.92h68V741.19h-68V677.13q-49.62,73.05-123,73-63.67,0-108.79-50t-45.11-121.48q0-67.58,45.5-118.16t106.84-50.59q37.89,0,71.87,20.7t52.74,53.91ZM1303.16,581q0-44.13-31.7-75.58T1195.55,474q-43,0-75.14,31.25t-32.09,73.44q0,45.7,31.31,77.73t75.92,32q44.22,0,75.91-31.84T1303.16,581Z" transform="translate(-112.15 -244.31)"/><path d="M1785.59,593.14h-275q9,49.62,40.82,72.46t69.33,22.86q57.81,0,96.88-48.05l49.61,37.5q-55.87,72.27-149.61,72.26-71.88,0-120.32-49.21t-48.43-122.27q0-68.36,49-118.56t119.73-50.19q69.53,0,119.14,51T1785.59,593.14Zm-268-54.29h196.87q-32.81-66.41-96.87-66.41Q1547.69,472.44,1517.62,538.85Z" transform="translate(-112.15 -244.31)"/><rect x="524.61" y="174.61" width="67.19" height="322.27"/><path d="M706.88,276.54q-15.45-15.42-36.53-15.43-21.48,0-37.11,15.43t-15.62,36.52q0,21.49,15.62,36.72T670.35,365q21.09,0,36.53-15.24a49.73,49.73,0,0,0,15.42-36.72Q722.3,292,706.88,276.54ZM669.5,348A34.5,34.5,0,1,1,704,313.5,34.5,34.5,0,0,1,669.5,348Z" transform="translate(-112.15 -244.31)"/></g></svg>